<svg width="42" height="42" viewBox="0 0 42 42" fill="none" xmlns="http://www.w3.org/2000/svg">
<rect width="42" height="42" rx="8" fill="black"/>
<path d="M2.85094 18.968C3.61894 18.904 4.19494 18.696 4.57894 18.344C4.97894 17.992 5.17894 17.52 5.17894 16.928C5.17894 16.256 5.10694 15.288 4.96294 14.024C4.80294 12.52 4.72294 11.424 4.72294 10.736C4.72294 9.488 5.09094 8.52 5.82694 7.832C6.57894 7.128 7.57094 6.776 8.80294 6.776H10.4589V9.608H9.45094C8.45894 9.608 7.96294 10.08 7.96294 11.024C7.96294 11.472 8.02694 12.368 8.15494 13.712C8.17094 13.872 8.21094 14.328 8.27494 15.08C8.33894 15.816 8.37094 16.472 8.37094 17.048C8.37094 17.896 8.16294 18.6 7.74694 19.16C7.33094 19.72 6.69894 20.08 5.85094 20.24V20.288C6.69894 20.464 7.33094 20.832 7.74694 21.392C8.16294 21.936 8.37094 22.64 8.37094 23.504C8.37094 24.048 8.33894 24.696 8.27494 25.448C8.21094 26.184 8.17094 26.648 8.15494 26.84C8.02694 28.184 7.96294 29.072 7.96294 29.504C7.96294 30 8.08294 30.36 8.32294 30.584C8.56294 30.808 8.93894 30.92 9.45094 30.92H10.4589V33.776H8.80294C7.57094 33.776 6.57894 33.424 5.82694 32.72C5.09094 32.032 4.72294 31.064 4.72294 29.816C4.72294 29.112 4.80294 28.008 4.96294 26.504C5.10694 25.24 5.17894 24.28 5.17894 23.624C5.17894 23.032 4.97894 22.56 4.57894 22.208C4.19494 21.856 3.61894 21.648 2.85094 21.584V18.968ZM39.1536 21.584C38.3856 21.648 37.8016 21.856 37.4016 22.208C37.0176 22.56 36.8256 23.032 36.8256 23.624C36.8256 24.28 36.8976 25.24 37.0416 26.504C37.2016 28.008 37.2816 29.112 37.2816 29.816C37.2816 31.064 36.9056 32.032 36.1536 32.72C35.4176 33.424 34.4336 33.776 33.2016 33.776H31.5456V30.92H32.5536C33.0656 30.92 33.4416 30.808 33.6816 30.584C33.9216 30.36 34.0416 30 34.0416 29.504C34.0416 29.072 33.9776 28.184 33.8496 26.84C33.8336 26.648 33.7936 26.184 33.7296 25.448C33.6656 24.696 33.6336 24.048 33.6336 23.504C33.6336 22.64 33.8416 21.936 34.2576 21.392C34.6736 20.832 35.3056 20.464 36.1536 20.288V20.24C35.3056 20.08 34.6736 19.72 34.2576 19.16C33.8416 18.6 33.6336 17.896 33.6336 17.048C33.6336 16.472 33.6656 15.816 33.7296 15.08C33.7936 14.328 33.8336 13.872 33.8496 13.712C33.9776 12.368 34.0416 11.472 34.0416 11.024C34.0416 10.08 33.5456 9.608 32.5536 9.608H31.5456V6.776H33.2016C34.4336 6.776 35.4176 7.128 36.1536 7.832C36.9056 8.52 37.2816 9.488 37.2816 10.736C37.2816 11.424 37.2016 12.52 37.0416 14.024C36.8976 15.288 36.8256 16.256 36.8256 16.928C36.8256 17.52 37.0176 17.992 37.4016 18.344C37.8016 18.696 38.3856 18.904 39.1536 18.968V21.584Z" fill="#A3A3A3"/>
<path d="M19.9104 12.248C21.6704 12.248 23.2144 12.592 24.5424 13.28C25.8864 13.968 26.9184 14.952 27.6384 16.232C28.3744 17.496 28.7424 18.968 28.7424 20.648C28.7424 22.328 28.3744 23.8 27.6384 25.064C26.9184 26.312 25.8864 27.28 24.5424 27.968C23.2144 28.656 21.6704 29 19.9104 29H14.0544V12.248H19.9104ZM19.7904 26.144C21.5504 26.144 22.9104 25.664 23.8704 24.704C24.8304 23.744 25.3104 22.392 25.3104 20.648C25.3104 18.904 24.8304 17.544 23.8704 16.568C22.9104 15.576 21.5504 15.08 19.7904 15.08H17.4144V26.144H19.7904Z" fill="#F0F0F0"/>
</svg>
