<svg width="76" height="28" viewBox="0 0 86 33" fill="none" xmlns="http://www.w3.org/2000/svg">
<path d="M7.97394 3.05998C10.1739 3.05998 12.1039 3.48998 13.7639 4.34998C15.4439 5.20998 16.7339 6.43998 17.6339 8.03998C18.5539 9.61998 19.0139 11.46 19.0139 13.56C19.0139 15.66 18.5539 17.5 17.6339 19.08C16.7339 20.64 15.4439 21.85 13.7639 22.71C12.1039 23.57 10.1739 24 7.97394 24H0.653931V3.05998H7.97394ZM7.82394 20.43C10.0239 20.43 11.7239 19.83 12.9239 18.63C14.1239 17.43 14.7239 15.74 14.7239 13.56C14.7239 11.38 14.1239 9.67998 12.9239 8.45998C11.7239 7.21998 10.0239 6.59998 7.82394 6.59998H4.85393V20.43H7.82394ZM24.2878 5.39998C23.5478 5.39998 22.9278 5.16998 22.4278 4.70998C21.9478 4.22998 21.7078 3.63998 21.7078 2.93998C21.7078 2.23998 21.9478 1.65998 22.4278 1.19998C22.9278 0.719981 23.5478 0.47998 24.2878 0.47998C25.0278 0.47998 25.6378 0.719981 26.1178 1.19998C26.6178 1.65998 26.8678 2.23998 26.8678 2.93998C26.8678 3.63998 26.6178 4.22998 26.1178 4.70998C25.6378 5.16998 25.0278 5.39998 24.2878 5.39998ZM26.3578 7.37998V24H22.1578V7.37998H26.3578ZM45.9574 15.33C45.9574 15.93 45.9174 16.47 45.8374 16.95H33.6874C33.7874 18.15 34.2074 19.09 34.9474 19.77C35.6874 20.45 36.5974 20.79 37.6774 20.79C39.2374 20.79 40.3474 20.12 41.0074 18.78H45.5374C45.0574 20.38 44.1374 21.7 42.7774 22.74C41.4174 23.76 39.7474 24.27 37.7674 24.27C36.1674 24.27 34.7274 23.92 33.4474 23.22C32.1874 22.5 31.1974 21.49 30.4774 20.19C29.7774 18.89 29.4274 17.39 29.4274 15.69C29.4274 13.97 29.7774 12.46 30.4774 11.16C31.1774 9.85998 32.1574 8.85998 33.4174 8.15998C34.6774 7.45998 36.1274 7.10998 37.7674 7.10998C39.3474 7.10998 40.7574 7.44998 41.9974 8.12998C43.2574 8.80998 44.2274 9.77998 44.9074 11.04C45.6074 12.28 45.9574 13.71 45.9574 15.33ZM41.6074 14.13C41.5874 13.05 41.1974 12.19 40.4374 11.55C39.6774 10.89 38.7474 10.56 37.6474 10.56C36.6074 10.56 35.7274 10.88 35.0074 11.52C34.3074 12.14 33.8774 13.01 33.7174 14.13H41.6074ZM55.533 7.10998C56.773 7.10998 57.863 7.35998 58.803 7.85998C59.743 8.33998 60.483 8.96998 61.023 9.74998V7.37998H65.253V24.12C65.253 25.66 64.943 27.03 64.323 28.23C63.703 29.45 62.773 30.41 61.533 31.11C60.293 31.83 58.793 32.19 57.033 32.19C54.673 32.19 52.733 31.64 51.213 30.54C49.713 29.44 48.863 27.94 48.663 26.04H52.833C53.053 26.8 53.523 27.4 54.243 27.84C54.983 28.3 55.873 28.53 56.913 28.53C58.133 28.53 59.123 28.16 59.883 27.42C60.643 26.7 61.023 25.6 61.023 24.12V21.54C60.483 22.32 59.733 22.97 58.773 23.49C57.833 24.01 56.753 24.27 55.533 24.27C54.133 24.27 52.853 23.91 51.693 23.19C50.533 22.47 49.613 21.46 48.933 20.16C48.273 18.84 47.943 17.33 47.943 15.63C47.943 13.95 48.273 12.46 48.933 11.16C49.613 9.85998 50.523 8.85998 51.663 8.15998C52.823 7.45998 54.113 7.10998 55.533 7.10998ZM61.023 15.69C61.023 14.67 60.823 13.8 60.423 13.08C60.023 12.34 59.483 11.78 58.803 11.4C58.123 11 57.393 10.8 56.613 10.8C55.833 10.8 55.113 10.99 54.453 11.37C53.793 11.75 53.253 12.31 52.833 13.05C52.433 13.77 52.233 14.63 52.233 15.63C52.233 16.63 52.433 17.51 52.833 18.27C53.253 19.01 53.793 19.58 54.453 19.98C55.133 20.38 55.853 20.58 56.613 20.58C57.393 20.58 58.123 20.39 58.803 20.01C59.483 19.61 60.023 19.05 60.423 18.33C60.823 17.59 61.023 16.71 61.023 15.69ZM76.7351 24.27C75.1351 24.27 73.6951 23.92 72.4151 23.22C71.1351 22.5 70.1251 21.49 69.3851 20.19C68.6651 18.89 68.3051 17.39 68.3051 15.69C68.3051 13.99 68.6751 12.49 69.4151 11.19C70.1751 9.88998 71.2051 8.88998 72.5051 8.18998C73.8051 7.46998 75.2551 7.10998 76.8551 7.10998C78.4551 7.10998 79.9051 7.46998 81.2051 8.18998C82.5051 8.88998 83.5251 9.88998 84.2651 11.19C85.0251 12.49 85.4051 13.99 85.4051 15.69C85.4051 17.39 85.0151 18.89 84.2351 20.19C83.4751 21.49 82.4351 22.5 81.1151 23.22C79.8151 23.92 78.3551 24.27 76.7351 24.27ZM76.7351 20.61C77.4951 20.61 78.2051 20.43 78.8651 20.07C79.5451 19.69 80.0851 19.13 80.4851 18.39C80.8851 17.65 81.0851 16.75 81.0851 15.69C81.0851 14.11 80.6651 12.9 79.8251 12.06C79.0051 11.2 77.9951 10.77 76.7951 10.77C75.5951 10.77 74.5851 11.2 73.7651 12.06C72.9651 12.9 72.5651 14.11 72.5651 15.69C72.5651 17.27 72.9551 18.49 73.7351 19.35C74.5351 20.19 75.5351 20.61 76.7351 20.61Z" fill="white"/>
</svg>
