<svg width="159" height="32" viewBox="0 0 159 32" fill="none" xmlns="http://www.w3.org/2000/svg">
<path d="M5.83468 4.20998C9.09468 4.20998 11.7047 4.94998 13.6647 6.42998C15.6447 7.88998 16.6347 10.58 16.6347 14.5C16.6347 18.36 15.6747 21.08 13.7547 22.66C11.8347 24.22 9.34468 25 6.28468 25H0.0446777V4.20998H5.83468ZM4.96468 7.77998V21.43H6.58468C8.20468 21.43 9.43468 20.93 10.2747 19.93C11.1147 18.91 11.5347 17.1 11.5347 14.5C11.5347 12.72 11.3247 11.34 10.9047 10.36C10.4847 9.37998 9.91468 8.70998 9.19468 8.34998C8.47468 7.96998 7.58468 7.77998 6.52468 7.77998H4.96468ZM24.2357 9.06998V25H19.4957V9.06998H24.2357ZM21.8356 0.669983C22.6556 0.669983 23.3256 0.929983 23.8456 1.44998C24.3856 1.94998 24.6557 2.58998 24.6557 3.36998C24.6557 4.14998 24.3856 4.79998 23.8456 5.31998C23.3256 5.81998 22.6556 6.06998 21.8356 6.06998C21.0156 6.06998 20.3457 5.81998 19.8257 5.31998C19.3057 4.79998 19.0457 4.14998 19.0457 3.36998C19.0457 2.58998 19.3057 1.94998 19.8257 1.44998C20.3457 0.929983 21.0156 0.669983 21.8356 0.669983ZM41.8525 16.72C41.8525 17.38 41.8225 17.95 41.7625 18.43H31.8925C32.0525 19.77 32.4325 20.71 33.0325 21.25C33.6325 21.79 34.4624 22.06 35.5224 22.06C36.1624 22.06 36.7825 21.95 37.3825 21.73C37.9825 21.49 38.6325 21.13 39.3325 20.65L41.2825 23.29C39.4225 24.77 37.3524 25.51 35.0724 25.51C32.4924 25.51 30.5125 24.75 29.1325 23.23C27.7525 21.71 27.0625 19.67 27.0625 17.11C27.0625 15.49 27.3525 14.04 27.9325 12.76C28.5125 11.46 29.3625 10.44 30.4825 9.69998C31.6025 8.93998 32.9424 8.55998 34.5024 8.55998C36.8024 8.55998 38.6025 9.27998 39.9025 10.72C41.2025 12.16 41.8525 14.16 41.8525 16.72ZM37.2024 15.37C37.1624 12.93 36.3025 11.71 34.6225 11.71C33.8025 11.71 33.1624 12.01 32.7024 12.61C32.2624 13.21 31.9925 14.2 31.8925 15.58H37.2024V15.37ZM59.1852 9.99998C58.1452 10.42 56.6152 10.63 54.5952 10.63C55.6352 11.07 56.3953 11.61 56.8753 12.25C57.3553 12.89 57.5952 13.72 57.5952 14.74C57.5952 15.76 57.3253 16.68 56.7853 17.5C56.2453 18.3 55.4653 18.93 54.4453 19.39C53.4453 19.85 52.2653 20.08 50.9053 20.08C50.2653 20.08 49.6552 20.02 49.0752 19.9C48.9152 19.98 48.7852 20.11 48.6852 20.29C48.6052 20.45 48.5653 20.62 48.5653 20.8C48.5653 21.1 48.6753 21.34 48.8953 21.52C49.1353 21.68 49.6053 21.76 50.3053 21.76H52.7052C53.9252 21.76 54.9952 21.96 55.9152 22.36C56.8352 22.76 57.5452 23.31 58.0452 24.01C58.5452 24.71 58.7952 25.5 58.7952 26.38C58.7952 28.04 58.0753 29.33 56.6353 30.25C55.2153 31.19 53.1552 31.66 50.4552 31.66C48.5152 31.66 46.9852 31.45 45.8652 31.03C44.7452 30.63 43.9553 30.06 43.4953 29.32C43.0553 28.58 42.8353 27.65 42.8353 26.53H47.0952C47.0952 27.01 47.1852 27.39 47.3652 27.67C47.5652 27.95 47.9152 28.16 48.4152 28.3C48.9152 28.44 49.6352 28.51 50.5752 28.51C51.8752 28.51 52.7752 28.35 53.2752 28.03C53.7752 27.73 54.0252 27.29 54.0252 26.71C54.0252 26.23 53.8352 25.85 53.4552 25.57C53.0752 25.29 52.5053 25.15 51.7453 25.15H49.4352C47.7952 25.15 46.5653 24.86 45.7453 24.28C44.9453 23.68 44.5452 22.92 44.5452 22C44.5452 21.42 44.7153 20.86 45.0553 20.32C45.3953 19.76 45.8552 19.3 46.4352 18.94C45.4352 18.4 44.7053 17.77 44.2453 17.05C43.8053 16.31 43.5853 15.42 43.5853 14.38C43.5853 12.6 44.2252 11.19 45.5052 10.15C46.7852 9.08998 48.4752 8.55998 50.5752 8.55998C52.1752 8.59998 53.5253 8.43998 54.6253 8.07998C55.7453 7.71998 56.8952 7.18998 58.0752 6.48998L59.1852 9.99998ZM50.6953 11.68C49.9553 11.68 49.3653 11.92 48.9253 12.4C48.5053 12.86 48.2952 13.5 48.2952 14.32C48.2952 15.18 48.5053 15.85 48.9253 16.33C49.3653 16.79 49.9553 17.02 50.6953 17.02C51.4753 17.02 52.0653 16.79 52.4653 16.33C52.8853 15.87 53.0952 15.18 53.0952 14.26C53.0952 12.54 52.2953 11.68 50.6953 11.68ZM67.2649 8.55998C69.7049 8.55998 71.6149 9.30998 72.9949 10.81C74.3749 12.29 75.0649 14.37 75.0649 17.05C75.0649 18.75 74.7449 20.24 74.1049 21.52C73.4849 22.78 72.5849 23.76 71.4049 24.46C70.2449 25.16 68.8649 25.51 67.2649 25.51C64.8449 25.51 62.9349 24.77 61.5349 23.29C60.1549 21.79 59.4649 19.7 59.4649 17.02C59.4649 15.32 59.7749 13.84 60.3949 12.58C61.0349 11.3 61.9348 10.31 63.0948 9.60998C64.2748 8.90998 65.6649 8.55998 67.2649 8.55998ZM67.2649 12.04C66.3049 12.04 65.5849 12.45 65.1049 13.27C64.6249 14.07 64.3849 15.32 64.3849 17.02C64.3849 18.76 64.6149 20.03 65.0749 20.83C65.5549 21.63 66.2849 22.03 67.2649 22.03C68.2249 22.03 68.9449 21.63 69.4249 20.83C69.9049 20.01 70.1449 18.75 70.1449 17.05C70.1449 15.31 69.9049 14.04 69.4249 13.24C68.9649 12.44 68.2449 12.04 67.2649 12.04ZM100.664 4.20998L94.8736 25H88.7536L82.7536 4.20998H87.9436L91.9036 21.16L95.6236 4.20998H100.664ZM106.853 9.06998V25H102.113V9.06998H106.853ZM104.453 0.669983C105.273 0.669983 105.943 0.929983 106.463 1.44998C107.003 1.94998 107.273 2.58998 107.273 3.36998C107.273 4.14998 107.003 4.79998 106.463 5.31998C105.943 5.81998 105.273 6.06998 104.453 6.06998C103.633 6.06998 102.963 5.81998 102.443 5.31998C101.923 4.79998 101.663 4.14998 101.663 3.36998C101.663 2.58998 101.923 1.94998 102.443 1.44998C102.963 0.929983 103.633 0.669983 104.453 0.669983ZM123.24 20.38C123.24 20.98 123.32 21.42 123.48 21.7C123.66 21.98 123.94 22.19 124.32 22.33L123.33 25.42C122.35 25.34 121.55 25.13 120.93 24.79C120.31 24.43 119.83 23.87 119.49 23.11C118.45 24.71 116.85 25.51 114.69 25.51C113.11 25.51 111.85 25.05 110.91 24.13C109.97 23.21 109.5 22.01 109.5 20.53C109.5 18.79 110.14 17.46 111.42 16.54C112.7 15.62 114.55 15.16 116.97 15.16H118.59V14.47C118.59 13.53 118.39 12.89 117.99 12.55C117.59 12.19 116.89 12.01 115.89 12.01C115.37 12.01 114.74 12.09 114 12.25C113.26 12.39 112.5 12.59 111.72 12.85L110.64 9.72998C111.64 9.34998 112.66 9.05998 113.7 8.85998C114.76 8.65998 115.74 8.55998 116.64 8.55998C118.92 8.55998 120.59 9.02998 121.65 9.96998C122.71 10.91 123.24 12.32 123.24 14.2V20.38ZM116.07 22.12C117.15 22.12 117.99 21.61 118.59 20.59V17.77H117.42C116.34 17.77 115.53 17.96 114.99 18.34C114.47 18.72 114.21 19.31 114.21 20.11C114.21 20.75 114.37 21.25 114.69 21.61C115.03 21.95 115.49 22.12 116.07 22.12ZM136.345 8.55998C137.725 8.55998 138.805 8.97998 139.585 9.81998C140.365 10.66 140.755 11.84 140.755 13.36V25H136.015V14.17C136.015 13.37 135.885 12.82 135.625 12.52C135.385 12.2 135.015 12.04 134.515 12.04C133.555 12.04 132.635 12.73 131.755 14.11V25H127.015V9.06998H131.155L131.485 10.96C132.165 10.16 132.895 9.55998 133.675 9.15998C134.475 8.75998 135.365 8.55998 136.345 8.55998ZM156.99 20.38C156.99 20.98 157.07 21.42 157.23 21.7C157.41 21.98 157.69 22.19 158.07 22.33L157.08 25.42C156.1 25.34 155.3 25.13 154.68 24.79C154.06 24.43 153.58 23.87 153.24 23.11C152.2 24.71 150.6 25.51 148.44 25.51C146.86 25.51 145.6 25.05 144.66 24.13C143.72 23.21 143.25 22.01 143.25 20.53C143.25 18.79 143.89 17.46 145.17 16.54C146.45 15.62 148.3 15.16 150.72 15.16H152.34V14.47C152.34 13.53 152.14 12.89 151.74 12.55C151.34 12.19 150.64 12.01 149.64 12.01C149.12 12.01 148.49 12.09 147.75 12.25C147.01 12.39 146.25 12.59 145.47 12.85L144.39 9.72998C145.39 9.34998 146.41 9.05998 147.45 8.85998C148.51 8.65998 149.49 8.55998 150.39 8.55998C152.67 8.55998 154.34 9.02998 155.4 9.96998C156.46 10.91 156.99 12.32 156.99 14.2V20.38ZM149.82 22.12C150.9 22.12 151.74 21.61 152.34 20.59V17.77H151.17C150.09 17.77 149.28 17.96 148.74 18.34C148.22 18.72 147.96 19.31 147.96 20.11C147.96 20.75 148.12 21.25 148.44 21.61C148.78 21.95 149.24 22.12 149.82 22.12Z" fill="black"/>
</svg>
